<?xml version="1.0" standalone="no"?>
<!DOCTYPE svg PUBLIC "-//W3C//DTD SVG 20010904//EN"
 "http://www.w3.org/TR/2001/REC-SVG-20010904/DTD/svg10.dtd">
<svg version="1.0" xmlns="http://www.w3.org/2000/svg"
 width="238.000000pt" height="238.000000pt" viewBox="0 0 238.000000 238.000000"
 preserveAspectRatio="xMidYMid meet">
<metadata>
Created by potrace 1.14, written by Peter Selinger 2001-2017
</metadata>
<g transform="translate(0.000000,238.000000) scale(0.100000,-0.100000)"
fill="#000000" stroke="none">
<path d="M1009 2366 c7 -8 5 -12 -10 -12 -10 0 -19 5 -19 11 0 5 -5 2 -11 -9
-9 -15 -13 -16 -20 -5 -6 10 -9 11 -9 2 0 -7 -7 -13 -15 -13 -8 0 -15 -5 -15
-11 0 -5 -5 -7 -10 -4 -6 4 -17 1 -25 -5 -8 -6 -18 -9 -23 -6 -5 3 -17 -3 -27
-14 -10 -11 -24 -20 -32 -20 -7 0 -13 -4 -13 -10 0 -5 -6 -9 -12 -7 -7 1 -12
-4 -10 -11 1 -8 -2 -11 -7 -8 -5 4 -16 0 -24 -8 -8 -8 -18 -12 -22 -8 -5 4 -5
-1 -2 -11 4 -11 3 -16 -3 -12 -5 3 -36 -11 -67 -33 -32 -21 -66 -42 -76 -45
-10 -4 -16 -11 -13 -16 3 -5 -2 -8 -12 -7 -9 0 -16 -5 -14 -12 1 -8 -1 -11 -6
-8 -5 3 -23 -8 -41 -24 -18 -17 -34 -30 -37 -30 -5 0 -42 -30 -65 -54 -11 -11
-19 -16 -19 -12 0 5 -9 -3 -21 -18 -11 -14 -17 -31 -13 -37 4 -8 3 -9 -4 -5
-7 4 -19 -6 -30 -23 -10 -17 -22 -29 -25 -26 -4 3 -5 2 -2 -2 3 -3 -2 -17 -10
-30 -9 -13 -13 -29 -9 -35 4 -7 3 -8 -4 -4 -11 6 -16 -6 -13 -26 0 -5 -4 -8
-10 -8 -5 0 -7 -4 -4 -10 3 -5 1 -10 -4 -10 -6 0 -10 -3 -9 -7 1 -5 -3 -18
-10 -29 -6 -12 -8 -24 -5 -28 3 -3 -2 -6 -13 -7 -11 0 -13 -3 -6 -6 6 -2 9
-10 5 -16 -16 -24 -31 -80 -26 -93 3 -8 1 -14 -5 -14 -5 0 -9 -14 -8 -31 1
-16 0 -32 -4 -34 -3 -2 -6 -23 -5 -47 0 -24 -4 -46 -10 -50 -7 -5 -7 -8 0 -8
6 0 10 -28 9 -65 -1 -36 3 -65 8 -65 5 0 7 -4 4 -8 -2 -4 -1 -14 4 -22 4 -7 4
-23 0 -36 -5 -12 -6 -25 -2 -28 3 -4 7 -12 9 -19 1 -7 7 -30 12 -52 5 -22 14
-54 19 -72 6 -17 8 -34 4 -37 -3 -3 0 -6 6 -6 7 0 12 -13 12 -30 0 -16 5 -30
10 -30 6 0 10 -12 10 -27 0 -14 3 -23 7 -19 4 3 15 -12 25 -34 10 -22 23 -40
29 -40 6 0 7 -4 4 -10 -3 -5 -1 -10 5 -10 6 0 8 -5 5 -10 -3 -6 1 -13 9 -16 9
-3 16 -11 16 -18 0 -6 11 -20 25 -30 14 -11 23 -26 21 -33 -3 -8 -2 -12 3 -8
5 3 16 -1 24 -9 8 -8 17 -13 21 -11 3 3 4 2 2 -1 -6 -7 43 -54 56 -54 5 0 6
-4 3 -10 -3 -5 6 -12 20 -16 14 -3 25 -10 25 -16 0 -5 5 -6 12 -2 7 5 9 2 5
-8 -4 -12 -1 -14 13 -11 12 3 28 -4 43 -21 18 -19 26 -23 35 -14 9 9 12 8 12
-5 0 -20 16 -23 23 -4 3 7 6 5 6 -5 1 -10 6 -18 12 -18 5 0 7 5 4 10 -3 6 -1
10 4 10 6 0 11 -5 11 -11 0 -5 3 -8 8 -6 4 3 18 0 32 -6 35 -14 51 -18 77 -20
16 -1 19 -4 12 -13 -7 -8 -6 -15 2 -20 7 -4 9 -3 6 3 -4 6 0 14 9 17 21 8 26
8 20 -2 -2 -4 4 -8 15 -8 10 0 19 7 19 15 0 11 4 10 14 -5 11 -15 12 -22 3
-34 -10 -13 -10 -13 5 -2 9 8 15 19 12 26 -4 10 15 12 80 10 47 -1 90 -5 97
-10 8 -4 10 -3 5 4 -4 7 -4 12 1 13 65 8 74 4 51 -20 -9 -9 -9 -12 -1 -7 6 3
13 3 16 -1 2 -5 3 -3 1 3 -4 20 17 34 37 23 21 -11 15 -41 -7 -32 -8 3 -14 1
-14 -5 0 -14 30 -8 40 8 5 8 5 21 0 30 -7 14 -3 16 33 13 23 -2 48 -5 54 -8 7
-2 19 6 28 18 16 23 21 23 43 5 9 -8 11 -7 7 4 -5 11 0 15 17 14 13 -1 29 5
37 12 7 7 20 11 27 8 8 -3 14 -1 14 4 0 6 -5 10 -12 10 -6 0 -8 3 -5 6 9 9 38
-16 31 -27 -3 -5 0 -9 6 -9 6 0 8 11 6 25 -3 13 0 28 6 31 7 4 8 2 4 -4 -4 -7
-3 -12 3 -12 6 0 15 9 21 20 6 11 14 19 18 19 15 -2 52 14 48 20 -3 4 -1 13 5
21 7 12 9 12 9 1 0 -11 3 -11 17 0 10 8 14 9 10 2 -5 -8 -1 -11 15 -8 12 3 26
12 31 21 8 13 11 14 18 3 6 -9 9 -10 9 -2 0 6 -4 15 -10 18 -15 9 -12 25 6 25
9 0 12 5 8 12 -4 7 -4 10 1 6 8 -8 35 15 35 31 0 6 6 8 14 5 8 -3 17 0 22 7 4
8 3 10 -4 5 -7 -4 -12 -4 -12 1 0 4 14 14 31 22 16 7 28 16 25 19 -3 2 -14 -1
-23 -9 -16 -12 -15 -11 1 8 10 13 24 20 30 16 6 -4 6 0 -1 9 -11 12 -9 18 7
33 10 9 26 15 34 12 15 -6 16 9 2 32 -6 10 -5 12 2 7 8 -5 12 0 12 13 0 12 5
21 11 21 6 0 8 -7 5 -16 -3 -8 -2 -12 3 -9 6 3 9 14 8 25 -1 10 -5 16 -11 13
-5 -4 -6 -1 -2 6 5 7 14 10 22 7 12 -4 12 -2 4 14 -8 15 -8 20 1 20 7 0 9 3 6
7 -4 3 -2 12 4 20 6 7 9 22 6 33 -3 11 -1 23 4 26 5 3 7 11 3 17 -3 7 2 3 10
-7 18 -23 20 -18 6 18 -5 14 -6 26 -2 26 5 0 7 14 6 30 -1 17 3 30 9 30 8 0 9
3 1 8 -17 11 -13 62 6 63 11 0 11 2 -3 8 -23 9 -23 19 0 37 17 13 17 14 -2 7
-18 -6 -19 -5 -5 12 9 11 10 16 2 11 -6 -4 -12 -3 -12 2 0 15 26 33 35 24 5
-4 5 -1 1 6 -6 10 -11 10 -22 1 -11 -9 -14 -7 -14 15 0 17 4 25 11 21 6 -4 5
2 -2 13 -10 16 -10 23 0 35 8 10 9 17 1 22 -5 3 -10 13 -10 21 0 10 5 12 13 8
8 -6 8 -3 -2 9 -8 10 -12 33 -9 57 2 22 1 40 -2 40 -3 0 -4 25 -3 55 0 30 -2
55 -6 55 -6 0 -12 38 -13 80 -1 8 -5 21 -11 28 -5 6 -6 12 -2 12 4 0 2 7 -5
15 -7 8 -9 15 -6 15 4 0 1 10 -6 23 -7 12 -11 25 -10 30 1 4 -3 7 -8 7 -6 0
-10 7 -10 15 0 8 -5 15 -11 15 -5 0 -8 4 -5 9 3 4 -2 18 -12 29 -9 11 -26 31
-37 44 -11 12 -18 27 -16 33 1 5 0 7 -4 3 -4 -4 -31 17 -60 46 -29 28 -58 50
-64 48 -6 -2 -11 1 -11 7 0 6 -17 22 -38 35 -22 13 -46 32 -55 41 -10 9 -17
14 -17 10 0 -4 -7 1 -16 9 -8 9 -20 13 -26 10 -7 -4 -8 -2 -4 4 6 10 -6 17
-18 10 -2 -2 -13 5 -24 15 -12 11 -26 16 -31 12 -6 -3 -11 -2 -11 3 0 4 -21
19 -47 31 -27 12 -56 27 -65 32 -13 6 -18 5 -18 -3 0 -10 -3 -9 -9 1 -5 7 -13
11 -19 7 -6 -3 -13 -2 -17 4 -4 6 -11 8 -16 5 -5 -4 -9 0 -9 7 0 8 -3 9 -8 3
-8 -11 -72 -14 -72 -4 0 4 -7 10 -16 13 -8 3 -12 2 -9 -4 3 -6 2 -10 -4 -10
-5 0 -12 4 -15 9 -3 5 -21 6 -38 2 -18 -4 -46 -4 -61 0 -22 6 -26 5 -18 -5z
m695 -1755 c3 -4 -3 -16 -14 -26 -18 -16 -19 -16 -17 3 1 13 6 18 16 14 9 -3
12 -1 7 6 -4 7 -5 12 -2 12 3 0 7 -4 10 -9z"/>
<path d="M2006 1192 c-2 -4 0 -14 6 -22 8 -12 9 -12 5 2 -3 9 -1 19 6 22 9 3
9 5 0 5 -6 1 -14 -3 -17 -7z"/>
<path d="M2017 1131 c-10 -14 -10 -14 4 -4 9 7 18 10 21 7 3 -3 8 -1 12 4 9
16 -24 9 -37 -7z"/>
<path d="M2075 1060 c-3 -5 -1 -10 4 -10 6 0 11 5 11 10 0 6 -2 10 -4 10 -3 0
-8 -4 -11 -10z"/>
<path d="M1986 978 c3 -5 10 -6 15 -3 13 9 11 12 -6 12 -8 0 -12 -4 -9 -9z"/>
<path d="M1860 785 c-9 -10 -9 -15 -1 -15 6 0 11 5 11 11 0 5 5 7 12 3 7 -4 8
-3 4 4 -9 15 -11 15 -26 -3z"/>
<path d="M1871 713 c7 -12 15 -20 18 -17 3 2 -3 12 -13 22 -17 16 -18 16 -5
-5z"/>
<path d="M1780 666 c0 -2 8 -10 18 -17 15 -13 16 -12 3 4 -13 16 -21 21 -21
13z"/>
<path d="M1816 658 c3 -5 10 -6 15 -3 13 9 11 12 -6 12 -8 0 -12 -4 -9 -9z"/>
<path d="M1773 645 c4 -5 -5 -15 -20 -22 -26 -12 -26 -12 -3 -7 33 8 45 20 28
29 -7 5 -10 4 -5 0z"/>
<path d="M1765 602 c-5 -4 -17 -16 -25 -27 -11 -15 -7 -14 13 4 24 22 32 31
25 31 -2 0 -7 -4 -13 -8z"/>
<path d="M1755 559 c-3 -4 2 -6 10 -5 21 3 28 13 10 13 -9 0 -18 -4 -20 -8z"/>
<path d="M1629 546 c9 -10 21 -14 34 -10 14 4 17 3 12 -6 -5 -9 -4 -11 4 -6
14 9 4 29 -12 23 -7 -2 -21 0 -32 6 -18 9 -19 9 -6 -7z"/>
<path d="M1615 520 c3 -5 11 -10 16 -10 6 0 7 5 4 10 -3 6 -11 10 -16 10 -6 0
-7 -4 -4 -10z"/>
<path d="M1558 508 c-3 -7 1 -24 9 -38 9 -18 13 -20 13 -8 0 9 -4 19 -10 23
-5 3 -7 12 -3 20 3 8 3 15 0 15 -3 0 -7 -6 -9 -12z"/>
<path d="M1702 504 c10 -10 20 -16 22 -13 3 3 -5 11 -17 18 -21 13 -21 12 -5
-5z"/>
<path d="M1590 500 c-13 -8 -12 -10 3 -10 9 0 17 5 17 10 0 12 -1 12 -20 0z"/>
<path d="M1666 502 c-3 -5 1 -9 9 -9 8 0 12 4 9 9 -3 4 -7 8 -9 8 -2 0 -6 -4
-9 -8z"/>
<path d="M1624 484 c-18 -14 -18 -15 4 -4 12 6 22 13 22 15 0 8 -5 6 -26 -11z"/>
<path d="M1546 455 c9 -14 18 -25 20 -25 2 0 -2 11 -8 25 -6 14 -15 25 -20 25
-5 0 -1 -11 8 -25z"/>
<path d="M1457 453 c-4 -3 -7 -11 -7 -17 0 -6 5 -5 12 2 6 6 9 14 7 17 -3 3
-9 2 -12 -2z"/>
<path d="M1595 451 c-3 -5 -2 -12 3 -15 5 -3 9 1 9 9 0 17 -3 19 -12 6z"/>
<path d="M1655 451 c-3 -5 -2 -12 3 -15 5 -3 9 1 9 9 0 17 -3 19 -12 6z"/>
<path d="M1471 427 c-13 -21 -12 -21 5 -5 10 10 16 20 13 22 -3 3 -11 -5 -18
-17z"/>
<path d="M1360 415 c-7 -9 -11 -17 -9 -20 3 -2 10 5 17 15 14 24 10 26 -8 5z"/>
<path d="M1426 416 c10 -8 21 -12 24 -10 5 6 -21 24 -34 24 -6 0 -1 -6 10 -14z"/>
<path d="M1495 421 c-3 -5 0 -13 6 -17 7 -4 9 -3 5 4 -3 6 2 13 11 15 16 4 16
5 1 6 -9 0 -19 -3 -23 -8z"/>
<path d="M730 411 c0 -6 4 -13 10 -16 6 -3 7 1 4 9 -7 18 -14 21 -14 7z"/>
<path d="M656 402 c-2 -4 -1 -14 4 -22 7 -11 9 -9 7 8 -1 24 -3 26 -11 14z"/>
<path d="M1259 408 c-4 -19 -9 -51 -6 -47 1 2 8 11 15 21 9 11 10 18 2 23 -5
3 -10 5 -11 3z"/>
<path d="M1369 389 c-6 -12 -4 -19 5 -22 10 -4 12 0 8 15 -3 12 -1 19 4 15 6
-3 16 -2 24 3 11 7 9 9 -8 7 -13 -1 -28 -9 -33 -18z"/>
<path d="M1547 399 c7 -7 15 -10 18 -7 3 3 -2 9 -12 12 -14 6 -15 5 -6 -5z"/>
<path d="M776 387 c3 -10 9 -15 12 -12 3 3 0 11 -7 18 -10 9 -11 8 -5 -6z"/>
<path d="M1296 392 c-2 -4 -1 -14 4 -22 7 -11 9 -9 7 8 -1 24 -3 26 -11 14z"/>
<path d="M941 374 c0 -11 3 -14 6 -6 3 7 2 16 -1 19 -3 4 -6 -2 -5 -13z"/>
<path d="M968 371 c4 -10 7 -11 10 -3 2 7 8 10 12 7 5 -3 11 -2 14 3 2 4 -6 8
-19 8 -16 0 -21 -4 -17 -15z"/>
<path d="M1027 373 c3 -7 9 -10 14 -7 14 8 11 21 -5 21 -8 0 -12 -6 -9 -14z"/>
<path d="M1405 380 c-3 -6 1 -7 9 -4 18 7 21 14 7 14 -6 0 -13 -4 -16 -10z"/>
<path d="M1438 372 c-8 -9 -8 -16 -1 -23 8 -8 11 -6 10 6 -1 10 6 19 16 21 27
4 33 13 8 11 -12 -1 -27 -7 -33 -15z"/>
<path d="M1070 370 c-9 -6 -10 -10 -3 -10 6 0 15 5 18 10 8 12 4 12 -15 0z"/>
<path d="M866 358 c3 -5 10 -6 15 -3 13 9 11 12 -6 12 -8 0 -12 -4 -9 -9z"/>
<path d="M1095 359 c-5 -8 -4 -10 3 -5 7 4 12 2 12 -3 0 -6 7 -11 15 -11 9 0
12 -6 8 -17 -3 -10 -3 -15 1 -12 12 11 15 48 4 55 -7 4 -8 2 -4 -4 9 -15 -6
-16 -21 -1 -8 8 -13 7 -18 -2z"/>
<path d="M1270 361 c0 -6 4 -12 8 -15 5 -3 9 1 9 9 0 8 -4 15 -9 15 -4 0 -8
-4 -8 -9z"/>
<path d="M973 333 c0 -9 4 -10 12 -3 7 5 15 7 18 3 4 -3 7 -1 7 5 0 6 -8 10
-18 9 -10 0 -19 -7 -19 -14z"/>
<path d="M1063 339 c9 -6 15 -14 12 -19 -3 -5 -1 -11 4 -14 5 -4 8 0 7 6 -3
21 -16 38 -29 38 -7 0 -4 -5 6 -11z"/>
<path d="M1173 335 c0 -8 4 -12 9 -9 5 3 6 10 3 15 -9 13 -12 11 -12 -6z"/>
<path d="M1250 340 c0 -5 5 -10 11 -10 5 0 7 5 4 10 -3 6 -8 10 -11 10 -2 0
-4 -4 -4 -10z"/>
<path d="M1467 339 c7 -7 15 -10 18 -7 3 3 -2 9 -12 12 -14 6 -15 5 -6 -5z"/>
<path d="M806 318 c3 -5 10 -6 15 -3 13 9 11 12 -6 12 -8 0 -12 -4 -9 -9z"/>
<path d="M1190 305 c0 -7 30 -13 34 -7 3 4 -4 9 -15 9 -10 1 -19 0 -19 -2z"/>
<path d="M1246 298 c3 -5 10 -6 15 -3 13 9 11 12 -6 12 -8 0 -12 -4 -9 -9z"/>
<path d="M1095 280 c3 -5 8 -10 11 -10 2 0 4 5 4 10 0 6 -5 10 -11 10 -5 0 -7
-4 -4 -10z"/>
<path d="M950 220 c0 -5 5 -10 11 -10 5 0 7 5 4 10 -3 6 -8 10 -11 10 -2 0 -4
-4 -4 -10z"/>
</g>
</svg>
